<svg xmlns="http://www.w3.org/2000/svg" viewBox="0 0 1080 1080"><defs><style>.cls-1{font-size:150.4px;font-family:BerlinSansFB-Reg, Berlin Sans FB;}.cls-1,.cls-3{fill:#d86f2f;}.cls-2{fill:#2f5297;}</style></defs><title>logo codenexus</title><g id="BACKGROUND"><text class="cls-1" transform="translate(361.86 572.02)">Code<tspan class="cls-2" x="322.17" y="0">nexus</tspan></text></g><g id="OBJECTS"><path class="cls-3" d="M198.39,460a72.83,72.83,0,0,0-70.55,1.19,71.77,71.77,0,0,0-26.42,26.42,72.9,72.9,0,0,0,0,72.74,71.92,71.92,0,0,0,26.42,26.42,72.42,72.42,0,0,0,95.92-21.49c.15-.15,2.31-3.38,3.18-4.87.48-.84.92-1.68,1.37-2.52L223,549.16a62.47,62.47,0,0,1-3.48,6.94q-1.12,1.92-2.36,3.74h0a63.86,63.86,0,0,1-22.75,20.5,64.16,64.16,0,0,1-62.32-1A63.85,63.85,0,0,1,108.82,556a64.29,64.29,0,0,1,0-64.21,64,64,0,0,1,23.28-23.28,64.22,64.22,0,0,1,62.26-1.06A63.81,63.81,0,0,1,216.44,487l7-4.74A71.91,71.91,0,0,0,198.39,460Zm44.7,122.15a98.18,98.18,0,0,1-32.68,28.31,97.56,97.56,0,0,1-84.29,3.85A96.34,96.34,0,0,1,73.87,562a97.36,97.36,0,0,1,0-76.18,96.32,96.32,0,0,1,52.25-52.25,97.93,97.93,0,0,1,84.23,3.73,97.34,97.34,0,0,1,34.38,30.57l7-4.74a106.42,106.42,0,0,0-37.33-33.29,106.15,106.15,0,0,0-91.64-4.09,105.13,105.13,0,0,0-56.74,56.75,105.32,105.32,0,0,0,0,82.81,105.13,105.13,0,0,0,56.74,56.75,106.14,106.14,0,0,0,91.52-4,106.77,106.77,0,0,0,33.59-28Zm-52.7-107a55.13,55.13,0,0,0-47.68-2.19,54.73,54.73,0,0,0-29.56,29.55,54.87,54.87,0,0,0,0,43A54.79,54.79,0,0,0,142.71,575a55.21,55.21,0,0,0,47.56-2.13,55.06,55.06,0,0,0,19.64-17.61l0,0a58.74,58.74,0,0,0,5.26-9.72,53.21,53.21,0,0,0,2.06-5.79L212,531.09a59.6,59.6,0,0,1-8.93,19.16h0a46.62,46.62,0,0,1-16.65,15,45.68,45.68,0,0,1-22.21,5.57,46.92,46.92,0,0,1,0-93.83,46.64,46.64,0,0,1,38.12,19.46l6.94-4.68A54.92,54.92,0,0,0,190.39,475.07ZM206.5,445a89.7,89.7,0,0,0-87.19,1.42A89.17,89.17,0,0,0,86.67,479a89.81,89.81,0,0,0,0,89.8,89.32,89.32,0,0,0,32.64,32.64,89.88,89.88,0,0,0,87,1.54,89.14,89.14,0,0,0,31.81-28.5h0l.18-.26-5-8.25c-1.16,2-2,3.42-2,3.42a81.28,81.28,0,0,1-28.78,26,81,81,0,0,1-69.78,3.19,79,79,0,0,1-43.13-43.12,80.79,80.79,0,0,1,0-63A79.12,79.12,0,0,1,132.7,449.3a81.06,81.06,0,0,1,69.72,3.14,80.69,80.69,0,0,1,28.19,25l7-4.74A89.48,89.48,0,0,0,206.5,445Z"/><path class="cls-2" d="M215.27,500.24,289.46,622h-9.83L208.28,504.86Zm14.1-9.71L309.6,622h-10L222.26,495.15Zm14.22-9.48,86.15,141H319.55L236.48,485.67Zm14-9.71L341,608.17V425.84h8.53V622H339.46L250.46,476Zm40.78,56.27-8.53-14.1V425.84h8.53Zm17.06,28-8.53-14.34V425.84h8.53Zm17.06,28.31-8.53-14.45V425.84h8.53Z"/></g></svg>